<svg width="200" height="200" viewBox="0 0 200 200" fill="none" xmlns="http://www.w3.org/2000/svg">
<g clip-path="url(#clip0_415_572)">
<path d="M99.9989 197.712C153.964 197.712 197.711 153.965 197.711 99.9999C197.711 46.0352 153.964 2.28809 99.9989 2.28809C46.0342 2.28809 2.28711 46.0352 2.28711 99.9999C2.28711 153.965 46.0342 197.712 99.9989 197.712Z" stroke="white" stroke-width="4.44" stroke-miterlimit="10"/>
<path d="M108.274 98.7262C104.455 97.7714 101.909 97.4531 100.636 97.4531C94.5883 97.4531 89.8141 99.0445 86.313 101.909C82.4937 105.092 80.584 108.593 80.584 112.731C80.584 119.733 84.7216 122.915 92.6786 122.915C98.7259 122.915 103.818 120.051 108.274 114.64V98.7262Z" stroke="white" stroke-width="4.44" stroke-miterlimit="10"/>
<path d="M147.104 185.617V135.647H160.472V125.78H147.104C146.786 124.507 146.786 123.552 146.786 122.279C146.786 118.142 148.059 114.64 150.287 112.094C152.515 109.548 155.698 107.957 159.199 107.957C161.109 107.957 163.337 108.275 165.883 109.23L169.066 100.636C165.246 99.3631 161.427 98.7265 158.244 98.7265C151.56 98.7265 145.831 101.273 141.694 106.047C137.556 110.821 135.328 117.505 135.328 125.78H125.78H126.098C120.687 125.78 119.414 120.688 119.414 114.959V91.4061C119.414 81.8577 117.186 75.1738 113.048 70.7179C108.592 66.262 101.909 64.3523 92.3602 64.3523C88.8592 64.3523 81.2204 64.9889 75.4914 68.4899L74.5366 69.1265C74.2183 68.4899 73.5817 67.8534 73.2635 67.5351C71.0355 64.6706 67.2161 61.8061 62.1237 59.5781L53.8484 54.8039C49.0742 52.576 46.528 49.3932 46.528 45.2555C46.528 43.3459 47.4828 41.4362 49.3925 40.1631C51.3022 38.8899 53.5301 38.2534 56.3946 38.2534C61.1688 38.2534 65.6248 40.1631 70.3989 43.6641L73.5817 32.8426C66.2613 29.6598 60.214 28.3867 55.4398 28.3867C49.0742 28.3867 43.9817 29.9781 39.8441 32.8426C36.0248 36.0254 33.7968 40.1631 33.7968 45.5738C33.7968 47.8018 34.1151 49.7115 34.7516 51.3029C35.3882 53.2125 36.343 54.8039 37.9344 56.3953C39.2075 57.9867 40.7989 59.5781 42.7086 60.8512C44.6183 62.1244 48.1194 64.034 53.5301 66.5803C60.5323 69.7631 64.0334 73.5824 64.0334 77.7201C64.0334 83.7674 60.5323 86.9502 53.2118 86.9502C49.0742 86.9502 43.9817 84.7222 37.6161 80.5846L33.4785 91.7244C39.5258 95.2254 46.2097 96.8168 52.8936 96.8168C60.214 96.8168 65.943 95.2254 70.0807 91.7244C73.5817 88.8598 75.8097 85.0405 76.128 79.948C76.128 79.3115 76.128 78.6749 76.128 78.0383C76.128 75.1738 85.9946 74.219 93.3151 74.219C102.863 74.219 107.638 79.6297 107.638 90.133C104.455 89.1781 101.59 88.5416 99.3624 88.5416C90.4506 88.5416 82.8118 90.7695 77.0828 95.5437C71.3538 100.318 68.171 105.729 68.171 112.413C68.171 118.142 70.0807 122.597 73.9 126.417C77.7194 130.236 82.1753 132.146 87.2678 132.146C96.8161 132.146 104.137 129.281 108.592 123.234C109.547 126.417 116.549 135.329 125.461 135.329H125.143H134.691V191.346" stroke="white" stroke-width="4.44" stroke-miterlimit="10"/>
</g>
<defs>
<clipPath id="clip0_415_572">
<rect width="200" height="200" fill="white"/>
</clipPath>
</defs>
</svg>
