<svg width="156" height="40" viewBox="0 0 156 40" fill="none" xmlns="http://www.w3.org/2000/svg">
<path d="M3.48 1.2V8.664H8.88V1.2H10.56V17.976H8.88V10.368H3.48V17.976H1.824V1.2H3.48ZM20.607 3.048H20.583C20.263 4.504 19.943 5.944 19.623 7.368C19.319 8.776 19.007 10.208 18.687 11.664H22.455L20.607 3.048ZM17.223 17.976H15.591L19.431 1.176H21.711L25.551 17.976H23.943L22.887 13.392H18.255L17.223 17.976ZM34.6204 2.664C34.3644 2.664 34.0924 2.696 33.8044 2.76C33.5164 2.808 33.2524 2.864 33.0124 2.928C32.7244 3.008 32.4444 3.096 32.1724 3.192V9.552H34.6204C35.7084 9.552 36.5804 9.232 37.2364 8.592C37.8924 7.952 38.2204 7.032 38.2204 5.832C38.2204 5.256 38.1324 4.768 37.9564 4.368C37.7804 3.952 37.5324 3.624 37.2124 3.384C36.8924 3.128 36.5084 2.944 36.0604 2.832C35.6284 2.72 35.1484 2.664 34.6204 2.664ZM40.1644 18H38.5324L35.6044 11.208C35.4764 11.224 35.3404 11.24 35.1964 11.256C35.0524 11.256 34.9164 11.256 34.7884 11.256H32.1484V18H30.5644V1.944C31.0124 1.768 31.4764 1.608 31.9564 1.464C32.3724 1.336 32.8284 1.224 33.3244 1.128C33.8204 1.016 34.3164 0.959999 34.8124 0.959999C35.4844 0.959999 36.1244 1.072 36.7324 1.296C37.3404 1.504 37.8764 1.824 38.3404 2.256C38.8044 2.672 39.1724 3.184 39.4444 3.792C39.7324 4.384 39.8764 5.064 39.8764 5.832C39.8764 6.36 39.8124 6.88 39.6844 7.392C39.5564 7.888 39.3724 8.36 39.1324 8.808C38.9084 9.24 38.6284 9.624 38.2924 9.96C37.9724 10.296 37.6204 10.56 37.2364 10.752L40.1644 18ZM50.889 11.424L54.009 1.2H56.337V18H54.753V4.296H54.729L51.969 13.152H49.689L46.953 4.344V18H45.369V1.2H47.721L50.793 11.424H50.889ZM70.122 5.52C70.122 4.928 70.01 4.456 69.786 4.104C69.562 3.736 69.282 3.456 68.946 3.264C68.626 3.056 68.29 2.92 67.938 2.856C67.586 2.792 67.29 2.76 67.05 2.76C66.81 2.76 66.514 2.8 66.162 2.88C65.81 2.944 65.474 3.08 65.154 3.288C64.834 3.48 64.554 3.76 64.314 4.128C64.09 4.48 63.978 4.952 63.978 5.544V13.8C63.978 14.408 64.09 14.888 64.314 15.24C64.554 15.576 64.834 15.84 65.154 16.032C65.474 16.208 65.81 16.32 66.162 16.368C66.514 16.416 66.81 16.44 67.05 16.44C67.29 16.44 67.586 16.416 67.938 16.368C68.29 16.304 68.626 16.184 68.946 16.008C69.282 15.816 69.562 15.552 69.786 15.216C70.01 14.864 70.122 14.392 70.122 13.8V5.52ZM71.73 13.8C71.73 14.152 71.658 14.584 71.514 15.096C71.386 15.592 71.138 16.072 70.77 16.536C70.418 17 69.938 17.4 69.33 17.736C68.722 18.056 67.954 18.216 67.026 18.216C66.114 18.216 65.362 18.056 64.77 17.736C64.178 17.4 63.698 17 63.33 16.536C62.978 16.072 62.73 15.592 62.586 15.096C62.442 14.584 62.37 14.152 62.37 13.8V5.544C62.37 5.192 62.434 4.76 62.562 4.248C62.706 3.72 62.954 3.216 63.306 2.736C63.658 2.256 64.138 1.848 64.746 1.512C65.354 1.16 66.122 0.983999 67.05 0.983999C67.962 0.983999 68.714 1.152 69.306 1.488C69.914 1.824 70.394 2.232 70.746 2.712C71.114 3.192 71.37 3.696 71.514 4.224C71.658 4.736 71.73 5.168 71.73 5.52V13.8ZM87.4387 1.2V18H84.8947L79.3027 4.296H79.2787V18H77.7427V1.2H79.7107L85.8307 16.056H85.8787V1.2H87.4387ZM98.0867 10.512H97.8227V18H96.2627V10.512H96.0707L92.1827 1.2H93.8147L97.0547 8.784L100.295 1.2H101.927L98.0867 10.512ZM9.696 23.808H5.928V39H4.32V23.808H0.432V22.2H9.696V23.808ZM21.549 22.2V23.88H16.245V29.712H20.397V31.392H16.245V37.272H21.597V38.976H14.589V22.2H21.549ZM28.1578 34.416C28.1578 34.896 28.2378 35.328 28.3978 35.712C28.5578 36.096 28.7738 36.424 29.0458 36.696C29.3178 36.968 29.6298 37.184 29.9818 37.344C30.3498 37.488 30.7258 37.568 31.1098 37.584C31.2218 37.584 31.3338 37.576 31.4458 37.56C31.5578 37.544 31.6938 37.512 31.8538 37.464C32.0298 37.4 32.2458 37.32 32.5018 37.224C32.7578 37.128 33.0858 37 33.4858 36.84L34.2538 36.504L34.9018 38.16L32.8138 38.904C32.5418 39 32.2458 39.08 31.9258 39.144C31.6058 39.208 31.3338 39.24 31.1098 39.24C30.5018 39.24 29.9178 39.136 29.3578 38.928C28.8138 38.704 28.3338 38.392 27.9178 37.992C27.5018 37.576 27.1738 37.08 26.9338 36.504C26.6938 35.912 26.5738 35.256 26.5738 34.536V26.928C26.5738 26.272 26.6938 25.648 26.9338 25.056C27.1738 24.448 27.4378 23.984 27.7258 23.664C27.9818 23.36 28.2058 23.128 28.3978 22.968C28.6058 22.808 28.8138 22.664 29.0218 22.536L29.1418 22.488L29.0698 22.512C29.2458 22.416 29.4938 22.304 29.8138 22.176C30.1498 22.032 30.5978 21.96 31.1578 21.96C31.3978 21.96 31.6778 22 31.9978 22.08C32.3178 22.16 32.5978 22.24 32.8378 22.32L34.8538 23.088L34.3018 24.648L32.0938 23.808C31.9338 23.744 31.7738 23.688 31.6138 23.64C31.4538 23.592 31.3098 23.568 31.1818 23.568C30.7818 23.568 30.3978 23.664 30.0298 23.856C29.6778 24.048 29.3658 24.304 29.0938 24.624C28.8218 24.928 28.6058 25.28 28.4458 25.68C28.2858 26.08 28.2058 26.496 28.2058 26.928L28.1578 34.416ZM41.7516 22.2V29.664H47.1516V22.2H48.8316V38.976H47.1516V31.368H41.7516V38.976H40.0956V22.2H41.7516ZM64.8066 22.2V39H62.2626L56.6706 25.296H56.6466V39H55.1106V22.2H57.0786L63.1986 37.056H63.2466V22.2H64.8066ZM78.5745 26.52C78.5745 25.928 78.4625 25.456 78.2385 25.104C78.0145 24.736 77.7345 24.456 77.3985 24.264C77.0785 24.056 76.7425 23.92 76.3905 23.856C76.0385 23.792 75.7425 23.76 75.5025 23.76C75.2625 23.76 74.9665 23.8 74.6145 23.88C74.2625 23.944 73.9265 24.08 73.6065 24.288C73.2865 24.48 73.0065 24.76 72.7665 25.128C72.5425 25.48 72.4305 25.952 72.4305 26.544V34.8C72.4305 35.408 72.5425 35.888 72.7665 36.24C73.0065 36.576 73.2865 36.84 73.6065 37.032C73.9265 37.208 74.2625 37.32 74.6145 37.368C74.9665 37.416 75.2625 37.44 75.5025 37.44C75.7425 37.44 76.0385 37.416 76.3905 37.368C76.7425 37.304 77.0785 37.184 77.3985 37.008C77.7345 36.816 78.0145 36.552 78.2385 36.216C78.4625 35.864 78.5745 35.392 78.5745 34.8V26.52ZM80.1825 34.8C80.1825 35.152 80.1105 35.584 79.9665 36.096C79.8385 36.592 79.5905 37.072 79.2225 37.536C78.8705 38 78.3905 38.4 77.7825 38.736C77.1745 39.056 76.4065 39.216 75.4785 39.216C74.5665 39.216 73.8145 39.056 73.2225 38.736C72.6305 38.4 72.1505 38 71.7825 37.536C71.4305 37.072 71.1825 36.592 71.0385 36.096C70.8945 35.584 70.8225 35.152 70.8225 34.8V26.544C70.8225 26.192 70.8865 25.76 71.0145 25.248C71.1585 24.72 71.4065 24.216 71.7585 23.736C72.1105 23.256 72.5905 22.848 73.1985 22.512C73.8065 22.16 74.5745 21.984 75.5025 21.984C76.4145 21.984 77.1665 22.152 77.7585 22.488C78.3665 22.824 78.8465 23.232 79.1985 23.712C79.5665 24.192 79.8225 24.696 79.9665 25.224C80.1105 25.736 80.1825 26.168 80.1825 26.52V34.8ZM86.1953 22.2H87.8513V37.344H93.0833V39H86.1953V22.2ZM105.276 26.52C105.276 25.928 105.164 25.456 104.94 25.104C104.716 24.736 104.436 24.456 104.1 24.264C103.78 24.056 103.444 23.92 103.092 23.856C102.74 23.792 102.444 23.76 102.204 23.76C101.964 23.76 101.668 23.8 101.316 23.88C100.964 23.944 100.628 24.08 100.308 24.288C99.9884 24.48 99.7084 24.76 99.4684 25.128C99.2444 25.48 99.1324 25.952 99.1324 26.544V34.8C99.1324 35.408 99.2444 35.888 99.4684 36.24C99.7084 36.576 99.9884 36.84 100.308 37.032C100.628 37.208 100.964 37.32 101.316 37.368C101.668 37.416 101.964 37.44 102.204 37.44C102.444 37.44 102.74 37.416 103.092 37.368C103.444 37.304 103.78 37.184 104.1 37.008C104.436 36.816 104.716 36.552 104.94 36.216C105.164 35.864 105.276 35.392 105.276 34.8V26.52ZM106.884 34.8C106.884 35.152 106.812 35.584 106.668 36.096C106.54 36.592 106.292 37.072 105.924 37.536C105.572 38 105.092 38.4 104.484 38.736C103.876 39.056 103.108 39.216 102.18 39.216C101.268 39.216 100.516 39.056 99.9244 38.736C99.3324 38.4 98.8524 38 98.4844 37.536C98.1324 37.072 97.8844 36.592 97.7404 36.096C97.5964 35.584 97.5244 35.152 97.5244 34.8V26.544C97.5244 26.192 97.5884 25.76 97.7164 25.248C97.8604 24.72 98.1084 24.216 98.4604 23.736C98.8124 23.256 99.2924 22.848 99.9004 22.512C100.508 22.16 101.276 21.984 102.204 21.984C103.116 21.984 103.868 22.152 104.46 22.488C105.068 22.824 105.548 23.232 105.9 23.712C106.268 24.192 106.524 24.696 106.668 25.224C106.812 25.736 106.884 26.168 106.884 26.52V34.8ZM114.265 34.68C114.265 35.096 114.345 35.48 114.505 35.832C114.665 36.184 114.873 36.496 115.129 36.768C115.401 37.04 115.705 37.256 116.041 37.416C116.393 37.56 116.761 37.632 117.145 37.632C117.305 37.632 117.513 37.608 117.769 37.56C118.041 37.496 118.441 37.328 118.969 37.056V32.52H120.625V38.088C119.681 38.6 118.905 38.92 118.297 39.048C117.705 39.176 117.297 39.24 117.073 39.24C116.417 39.24 115.817 39.112 115.273 38.856C114.729 38.584 114.257 38.232 113.857 37.8C113.457 37.352 113.145 36.832 112.921 36.24C112.713 35.648 112.609 35.016 112.609 34.344V26.856C112.673 25.336 113.105 24.144 113.905 23.28C114.721 22.4 115.793 21.96 117.121 21.96C117.361 21.976 117.641 22.016 117.961 22.08C118.281 22.144 118.569 22.224 118.825 22.32L120.457 22.944L119.881 24.624L118.057 23.928C117.689 23.768 117.377 23.688 117.121 23.688C116.737 23.688 116.369 23.776 116.017 23.952C115.665 24.128 115.361 24.36 115.105 24.648C114.849 24.936 114.641 25.272 114.481 25.656C114.337 26.04 114.265 26.44 114.265 26.856V34.68ZM126.318 22.2H127.878V39H126.318V22.2ZM141.121 22.2V23.88H135.817V29.712H139.969V31.392H135.817V37.272H141.169V38.976H134.161V22.2H141.121ZM155.336 34.008C155.336 34.68 155.216 35.32 154.976 35.928C154.736 36.536 154.408 37.064 153.992 37.512C153.576 37.96 153.088 38.32 152.528 38.592C151.968 38.848 151.36 38.976 150.704 38.976C150.08 38.976 149.464 38.896 148.856 38.736C148.248 38.56 147.704 38.368 147.224 38.16C146.664 37.92 146.136 37.648 145.64 37.344L146.216 35.76C146.776 36.048 147.32 36.296 147.848 36.504C148.312 36.696 148.8 36.872 149.312 37.032C149.824 37.176 150.28 37.248 150.68 37.248C151.096 37.248 151.488 37.168 151.856 37.008C152.224 36.832 152.536 36.6 152.792 36.312C153.064 36.024 153.272 35.688 153.416 35.304C153.576 34.92 153.656 34.504 153.656 34.056C153.656 33.608 153.552 33.232 153.344 32.928C153.136 32.624 152.864 32.376 152.528 32.184C152.208 31.976 151.848 31.816 151.448 31.704C151.064 31.592 150.688 31.504 150.32 31.44C149.712 31.344 149.144 31.176 148.616 30.936C148.088 30.68 147.624 30.36 147.224 29.976C146.84 29.592 146.528 29.144 146.288 28.632C146.064 28.104 145.952 27.512 145.952 26.856C145.952 26.184 146.072 25.552 146.312 24.96C146.552 24.368 146.88 23.856 147.296 23.424C147.712 22.976 148.192 22.624 148.736 22.368C149.296 22.096 149.888 21.96 150.512 21.96C150.896 21.96 151.296 22.008 151.712 22.104C152.128 22.184 152.52 22.28 152.888 22.392C153.304 22.52 153.72 22.664 154.136 22.824L153.608 24.456C153.24 24.312 152.872 24.184 152.504 24.072C152.184 23.976 151.84 23.888 151.472 23.808C151.12 23.712 150.784 23.664 150.464 23.664C150.064 23.664 149.688 23.752 149.336 23.928C148.984 24.104 148.68 24.336 148.424 24.624C148.168 24.912 147.968 25.248 147.824 25.632C147.68 26 147.608 26.384 147.608 26.784C147.608 27.248 147.704 27.656 147.896 28.008C148.088 28.344 148.328 28.632 148.616 28.872C148.92 29.112 149.248 29.304 149.6 29.448C149.952 29.592 150.288 29.696 150.608 29.76C151.264 29.872 151.88 30.032 152.456 30.24C153.032 30.448 153.528 30.72 153.944 31.056C154.376 31.392 154.712 31.8 154.952 32.28C155.208 32.76 155.336 33.336 155.336 34.008Z" fill="white"/>
</svg>
