<svg width="267" height="19" viewBox="0 0 267 19" fill="none" xmlns="http://www.w3.org/2000/svg">
<path d="M2.48 1.2V8.664H7.88V1.2H9.56V17.976H7.88V10.368H2.48V17.976H0.824V1.2H2.48ZM19.607 3.048H19.583C19.263 4.504 18.943 5.944 18.623 7.368C18.319 8.776 18.007 10.208 17.687 11.664H21.455L19.607 3.048ZM16.223 17.976H14.591L18.431 1.176H20.711L24.551 17.976H22.943L21.887 13.392H17.255L16.223 17.976ZM33.6204 2.664C33.3644 2.664 33.0924 2.696 32.8044 2.76C32.5164 2.808 32.2524 2.864 32.0124 2.928C31.7244 3.008 31.4444 3.096 31.1724 3.192V9.552H33.6204C34.7084 9.552 35.5804 9.232 36.2364 8.592C36.8924 7.952 37.2204 7.032 37.2204 5.832C37.2204 5.256 37.1324 4.768 36.9564 4.368C36.7804 3.952 36.5324 3.624 36.2124 3.384C35.8924 3.128 35.5084 2.944 35.0604 2.832C34.6284 2.72 34.1484 2.664 33.6204 2.664ZM39.1644 18H37.5324L34.6044 11.208C34.4764 11.224 34.3404 11.24 34.1964 11.256C34.0524 11.256 33.9164 11.256 33.7884 11.256H31.1484V18H29.5644V1.944C30.0124 1.768 30.4764 1.608 30.9564 1.464C31.3724 1.336 31.8284 1.224 32.3244 1.128C32.8204 1.016 33.3164 0.959999 33.8124 0.959999C34.4844 0.959999 35.1244 1.072 35.7324 1.296C36.3404 1.504 36.8764 1.824 37.3404 2.256C37.8044 2.672 38.1724 3.184 38.4444 3.792C38.7324 4.384 38.8764 5.064 38.8764 5.832C38.8764 6.36 38.8124 6.88 38.6844 7.392C38.5564 7.888 38.3724 8.36 38.1324 8.808C37.9084 9.24 37.6284 9.624 37.2924 9.96C36.9724 10.296 36.6204 10.56 36.2364 10.752L39.1644 18ZM49.889 11.424L53.009 1.2H55.337V18H53.753V4.296H53.729L50.969 13.152H48.689L45.953 4.344V18H44.369V1.2H46.721L49.793 11.424H49.889ZM69.122 5.52C69.122 4.928 69.01 4.456 68.786 4.104C68.562 3.736 68.282 3.456 67.946 3.264C67.626 3.056 67.29 2.92 66.938 2.856C66.586 2.792 66.29 2.76 66.05 2.76C65.81 2.76 65.514 2.8 65.162 2.88C64.81 2.944 64.474 3.08 64.154 3.288C63.834 3.48 63.554 3.76 63.314 4.128C63.09 4.48 62.978 4.952 62.978 5.544V13.8C62.978 14.408 63.09 14.888 63.314 15.24C63.554 15.576 63.834 15.84 64.154 16.032C64.474 16.208 64.81 16.32 65.162 16.368C65.514 16.416 65.81 16.44 66.05 16.44C66.29 16.44 66.586 16.416 66.938 16.368C67.29 16.304 67.626 16.184 67.946 16.008C68.282 15.816 68.562 15.552 68.786 15.216C69.01 14.864 69.122 14.392 69.122 13.8V5.52ZM70.73 13.8C70.73 14.152 70.658 14.584 70.514 15.096C70.386 15.592 70.138 16.072 69.77 16.536C69.418 17 68.938 17.4 68.33 17.736C67.722 18.056 66.954 18.216 66.026 18.216C65.114 18.216 64.362 18.056 63.77 17.736C63.178 17.4 62.698 17 62.33 16.536C61.978 16.072 61.73 15.592 61.586 15.096C61.442 14.584 61.37 14.152 61.37 13.8V5.544C61.37 5.192 61.434 4.76 61.562 4.248C61.706 3.72 61.954 3.216 62.306 2.736C62.658 2.256 63.138 1.848 63.746 1.512C64.354 1.16 65.122 0.983999 66.05 0.983999C66.962 0.983999 67.714 1.152 68.306 1.488C68.914 1.824 69.394 2.232 69.746 2.712C70.114 3.192 70.37 3.696 70.514 4.224C70.658 4.736 70.73 5.168 70.73 5.52V13.8ZM86.4387 1.2V18H83.8947L78.3027 4.296H78.2787V18H76.7427V1.2H78.7107L84.8307 16.056H84.8787V1.2H86.4387ZM97.0867 10.512H96.8227V18H95.2627V10.512H95.0707L91.1827 1.2H92.8147L96.0547 8.784L99.2947 1.2H100.927L97.0867 10.512ZM121.082 2.808H117.314V18H115.706V2.808H111.818V1.2H121.082V2.808ZM132.935 1.2V2.88H127.631V8.712H131.783V10.392H127.631V16.272H132.983V17.976H125.975V1.2H132.935ZM139.543 13.416C139.543 13.896 139.623 14.328 139.783 14.712C139.943 15.096 140.159 15.424 140.431 15.696C140.703 15.968 141.015 16.184 141.367 16.344C141.735 16.488 142.111 16.568 142.495 16.584C142.607 16.584 142.719 16.576 142.831 16.56C142.943 16.544 143.079 16.512 143.239 16.464C143.415 16.4 143.631 16.32 143.887 16.224C144.143 16.128 144.471 16 144.871 15.84L145.639 15.504L146.287 17.16L144.199 17.904C143.927 18 143.631 18.08 143.311 18.144C142.991 18.208 142.719 18.24 142.495 18.24C141.887 18.24 141.303 18.136 140.743 17.928C140.199 17.704 139.719 17.392 139.303 16.992C138.887 16.576 138.559 16.08 138.319 15.504C138.079 14.912 137.959 14.256 137.959 13.536V5.928C137.959 5.272 138.079 4.648 138.319 4.056C138.559 3.448 138.823 2.984 139.111 2.664C139.367 2.36 139.591 2.128 139.783 1.968C139.991 1.808 140.199 1.664 140.407 1.536L140.527 1.488L140.455 1.512C140.631 1.416 140.879 1.304 141.199 1.176C141.535 1.032 141.983 0.959999 142.543 0.959999C142.783 0.959999 143.063 0.999999 143.383 1.08C143.703 1.16 143.983 1.24 144.223 1.32L146.239 2.088L145.687 3.648L143.479 2.808C143.319 2.744 143.159 2.688 142.999 2.64C142.839 2.592 142.695 2.568 142.567 2.568C142.167 2.568 141.783 2.664 141.415 2.856C141.063 3.048 140.751 3.304 140.479 3.624C140.207 3.928 139.991 4.28 139.831 4.68C139.671 5.08 139.591 5.496 139.591 5.928L139.543 13.416ZM153.137 1.2V8.664H158.537V1.2H160.217V17.976H158.537V10.368H153.137V17.976H151.481V1.2H153.137ZM176.192 1.2V18H173.648L168.056 4.296H168.032V18H166.496V1.2H168.464L174.584 16.056H174.632V1.2H176.192ZM189.96 5.52C189.96 4.928 189.848 4.456 189.624 4.104C189.4 3.736 189.12 3.456 188.784 3.264C188.464 3.056 188.128 2.92 187.776 2.856C187.424 2.792 187.128 2.76 186.888 2.76C186.648 2.76 186.352 2.8 186 2.88C185.648 2.944 185.312 3.08 184.992 3.288C184.672 3.48 184.392 3.76 184.152 4.128C183.928 4.48 183.816 4.952 183.816 5.544V13.8C183.816 14.408 183.928 14.888 184.152 15.24C184.392 15.576 184.672 15.84 184.992 16.032C185.312 16.208 185.648 16.32 186 16.368C186.352 16.416 186.648 16.44 186.888 16.44C187.128 16.44 187.424 16.416 187.776 16.368C188.128 16.304 188.464 16.184 188.784 16.008C189.12 15.816 189.4 15.552 189.624 15.216C189.848 14.864 189.96 14.392 189.96 13.8V5.52ZM191.568 13.8C191.568 14.152 191.496 14.584 191.352 15.096C191.224 15.592 190.976 16.072 190.608 16.536C190.256 17 189.776 17.4 189.168 17.736C188.56 18.056 187.792 18.216 186.864 18.216C185.952 18.216 185.2 18.056 184.608 17.736C184.016 17.4 183.536 17 183.168 16.536C182.816 16.072 182.568 15.592 182.424 15.096C182.28 14.584 182.208 14.152 182.208 13.8V5.544C182.208 5.192 182.272 4.76 182.4 4.248C182.544 3.72 182.792 3.216 183.144 2.736C183.496 2.256 183.976 1.848 184.584 1.512C185.192 1.16 185.96 0.983999 186.888 0.983999C187.8 0.983999 188.552 1.152 189.144 1.488C189.752 1.824 190.232 2.232 190.584 2.712C190.952 3.192 191.208 3.696 191.352 4.224C191.496 4.736 191.568 5.168 191.568 5.52V13.8ZM197.581 1.2H199.237V16.344H204.469V18H197.581V1.2ZM216.662 5.52C216.662 4.928 216.55 4.456 216.326 4.104C216.102 3.736 215.822 3.456 215.486 3.264C215.166 3.056 214.83 2.92 214.478 2.856C214.126 2.792 213.83 2.76 213.59 2.76C213.35 2.76 213.054 2.8 212.702 2.88C212.35 2.944 212.014 3.08 211.694 3.288C211.374 3.48 211.094 3.76 210.854 4.128C210.63 4.48 210.518 4.952 210.518 5.544V13.8C210.518 14.408 210.63 14.888 210.854 15.24C211.094 15.576 211.374 15.84 211.694 16.032C212.014 16.208 212.35 16.32 212.702 16.368C213.054 16.416 213.35 16.44 213.59 16.44C213.83 16.44 214.126 16.416 214.478 16.368C214.83 16.304 215.166 16.184 215.486 16.008C215.822 15.816 216.102 15.552 216.326 15.216C216.55 14.864 216.662 14.392 216.662 13.8V5.52ZM218.27 13.8C218.27 14.152 218.198 14.584 218.054 15.096C217.926 15.592 217.678 16.072 217.31 16.536C216.958 17 216.478 17.4 215.87 17.736C215.262 18.056 214.494 18.216 213.566 18.216C212.654 18.216 211.902 18.056 211.31 17.736C210.718 17.4 210.238 17 209.87 16.536C209.518 16.072 209.27 15.592 209.126 15.096C208.982 14.584 208.91 14.152 208.91 13.8V5.544C208.91 5.192 208.974 4.76 209.102 4.248C209.246 3.72 209.494 3.216 209.846 2.736C210.198 2.256 210.678 1.848 211.286 1.512C211.894 1.16 212.662 0.983999 213.59 0.983999C214.502 0.983999 215.254 1.152 215.846 1.488C216.454 1.824 216.934 2.232 217.286 2.712C217.654 3.192 217.91 3.696 218.054 4.224C218.198 4.736 218.27 5.168 218.27 5.52V13.8ZM225.651 13.68C225.651 14.096 225.731 14.48 225.891 14.832C226.051 15.184 226.259 15.496 226.515 15.768C226.787 16.04 227.091 16.256 227.427 16.416C227.779 16.56 228.147 16.632 228.531 16.632C228.691 16.632 228.899 16.608 229.155 16.56C229.427 16.496 229.827 16.328 230.355 16.056V11.52H232.011V17.088C231.067 17.6 230.291 17.92 229.683 18.048C229.091 18.176 228.683 18.24 228.459 18.24C227.803 18.24 227.203 18.112 226.659 17.856C226.115 17.584 225.643 17.232 225.243 16.8C224.843 16.352 224.531 15.832 224.307 15.24C224.099 14.648 223.995 14.016 223.995 13.344V5.856C224.059 4.336 224.491 3.144 225.291 2.28C226.107 1.4 227.179 0.959999 228.507 0.959999C228.747 0.975999 229.027 1.016 229.347 1.08C229.667 1.144 229.955 1.224 230.211 1.32L231.843 1.944L231.267 3.624L229.443 2.928C229.075 2.768 228.763 2.688 228.507 2.688C228.123 2.688 227.755 2.776 227.403 2.952C227.051 3.128 226.747 3.36 226.491 3.648C226.235 3.936 226.027 4.272 225.867 4.656C225.723 5.04 225.651 5.44 225.651 5.856V13.68ZM237.704 1.2H239.264V18H237.704V1.2ZM252.507 1.2V2.88H247.203V8.712H251.355V10.392H247.203V16.272H252.555V17.976H245.547V1.2H252.507ZM266.722 13.008C266.722 13.68 266.602 14.32 266.362 14.928C266.122 15.536 265.794 16.064 265.378 16.512C264.962 16.96 264.474 17.32 263.914 17.592C263.354 17.848 262.746 17.976 262.09 17.976C261.466 17.976 260.85 17.896 260.242 17.736C259.634 17.56 259.09 17.368 258.61 17.16C258.05 16.92 257.522 16.648 257.026 16.344L257.602 14.76C258.162 15.048 258.706 15.296 259.234 15.504C259.698 15.696 260.186 15.872 260.698 16.032C261.21 16.176 261.666 16.248 262.066 16.248C262.482 16.248 262.874 16.168 263.242 16.008C263.61 15.832 263.922 15.6 264.178 15.312C264.45 15.024 264.658 14.688 264.802 14.304C264.962 13.92 265.042 13.504 265.042 13.056C265.042 12.608 264.938 12.232 264.73 11.928C264.522 11.624 264.25 11.376 263.914 11.184C263.594 10.976 263.234 10.816 262.834 10.704C262.45 10.592 262.074 10.504 261.706 10.44C261.098 10.344 260.53 10.176 260.002 9.936C259.474 9.68 259.01 9.36 258.61 8.976C258.226 8.592 257.914 8.144 257.674 7.632C257.45 7.104 257.338 6.512 257.338 5.856C257.338 5.184 257.458 4.552 257.698 3.96C257.938 3.368 258.266 2.856 258.682 2.424C259.098 1.976 259.578 1.624 260.122 1.368C260.682 1.096 261.274 0.959999 261.898 0.959999C262.282 0.959999 262.682 1.008 263.098 1.104C263.514 1.184 263.906 1.28 264.274 1.392C264.69 1.52 265.106 1.664 265.522 1.824L264.994 3.456C264.626 3.312 264.258 3.184 263.89 3.072C263.57 2.976 263.226 2.888 262.858 2.808C262.506 2.712 262.17 2.664 261.85 2.664C261.45 2.664 261.074 2.752 260.722 2.928C260.37 3.104 260.066 3.336 259.81 3.624C259.554 3.912 259.354 4.248 259.21 4.632C259.066 5 258.994 5.384 258.994 5.784C258.994 6.248 259.09 6.656 259.282 7.008C259.474 7.344 259.714 7.632 260.002 7.872C260.306 8.112 260.634 8.304 260.986 8.448C261.338 8.592 261.674 8.696 261.994 8.76C262.65 8.872 263.266 9.032 263.842 9.24C264.418 9.448 264.914 9.72 265.33 10.056C265.762 10.392 266.098 10.8 266.338 11.28C266.594 11.76 266.722 12.336 266.722 13.008Z" fill="white"/>
</svg>
