<svg width="48" height="48" viewBox="0 0 48 48" fill="none" xmlns="http://www.w3.org/2000/svg">
<path d="M0 4.80005V43.2001H48V40.8H2.4V4.80005H0ZM33.6 7.20005C32.327 7.20005 31.1061 7.70576 30.2059 8.60594C29.3057 9.50611 28.8 10.727 28.8 12C28.8 13.2731 29.3057 14.494 30.2059 15.3942C31.1061 16.2943 32.327 16.8 33.6 16.8C34.873 16.8 36.0939 16.2943 36.9941 15.3942C37.8943 14.494 38.4 13.2731 38.4 12C38.4 10.727 37.8943 9.50611 36.9941 8.60594C36.0939 7.70576 34.873 7.20005 33.6 7.20005ZM33.6 9.60005C34.2365 9.60005 34.847 9.85291 35.2971 10.303C35.7471 10.7531 36 11.3635 36 12C36 12.6366 35.7471 13.247 35.2971 13.6971C34.847 14.1472 34.2365 14.4 33.6 14.4C32.9635 14.4 32.353 14.1472 31.9029 13.6971C31.4529 13.247 31.2 12.6366 31.2 12C31.2 11.3635 31.4529 10.7531 31.9029 10.303C32.353 9.85291 32.9635 9.60005 33.6 9.60005ZM21.6 16.8C19.6904 16.8 17.8591 17.5586 16.5088 18.9089C15.1586 20.2591 14.4 22.0905 14.4 24C14.4 25.9096 15.1586 27.741 16.5088 29.0912C17.8591 30.4415 19.6904 31.2001 21.6 31.2001C23.5096 31.2001 25.3409 30.4415 26.6912 29.0912C28.0414 27.741 28.8 25.9096 28.8 24C28.8 22.0905 28.0414 20.2591 26.6912 18.9089C25.3409 17.5586 23.5096 16.8 21.6 16.8ZM21.6 19.2C22.873 19.2 24.0939 19.7058 24.9941 20.6059C25.8943 21.5061 26.4 22.727 26.4 24C26.4 25.2731 25.8943 26.494 24.9941 27.3942C24.0939 28.2943 22.873 28.8 21.6 28.8C20.327 28.8 19.1061 28.2943 18.2059 27.3942C17.3057 26.494 16.8 25.2731 16.8 24C16.8 22.727 17.3057 21.5061 18.2059 20.6059C19.1061 19.7058 20.327 19.2 21.6 19.2ZM39.6 24C38.0087 24 36.4826 24.6322 35.3574 25.7574C34.2321 26.8826 33.6 28.4088 33.6 30C33.6 31.5913 34.2321 33.1175 35.3574 34.2427C36.4826 35.3679 38.0087 36 39.6 36C41.1913 36 42.7174 35.3679 43.8426 34.2427C44.9679 33.1175 45.6 31.5913 45.6 30C45.6 28.4088 44.9679 26.8826 43.8426 25.7574C42.7174 24.6322 41.1913 24 39.6 24ZM39.6 26.4C40.5548 26.4 41.4705 26.7793 42.1456 27.4545C42.8207 28.1296 43.2 29.0453 43.2 30C43.2 30.9548 42.8207 31.8705 42.1456 32.5456C41.4705 33.2208 40.5548 33.6 39.6 33.6C38.6452 33.6 37.7295 33.2208 37.0544 32.5456C36.3793 31.8705 36 30.9548 36 30C36 29.0453 36.3793 28.1296 37.0544 27.4545C37.7295 26.7793 38.6452 26.4 39.6 26.4ZM10.8 28.8C9.84522 28.8001 8.92955 29.1793 8.25442 29.8545C7.57929 30.5296 7.2 31.4453 7.2 32.4C7.2 33.3548 7.57929 34.2705 8.25442 34.9456C8.92955 35.6208 9.84522 36 10.8 36C11.7548 36 12.6705 35.6208 13.3456 34.9456C14.0207 34.2705 14.4 33.3548 14.4 32.4C14.4 31.4453 14.0207 30.5296 13.3456 29.8545C12.6705 29.1793 11.7548 28.8001 10.8 28.8ZM10.8 31.2001C11.1183 31.2001 11.4235 31.3265 11.6485 31.5515C11.8736 31.7766 12 32.0818 12 32.4C12 32.7183 11.8736 33.0235 11.6485 33.2486C11.4235 33.4736 11.1183 33.6 10.8 33.6C10.4817 33.6 10.1765 33.4736 9.95147 33.2486C9.72643 33.0235 9.6 32.7183 9.6 32.4C9.6 32.0818 9.72643 31.7766 9.95147 31.5515C10.1765 31.3265 10.4817 31.2001 10.8 31.2001Z" fill="white"/>
</svg>
