<svg width="21" height="21" viewBox="0 0 21 21" fill="none" xmlns="http://www.w3.org/2000/svg">
<path fill-rule="evenodd" clip-rule="evenodd" d="M4.50928 1.24164C4.85445 1.24164 5.13428 1.52147 5.13428 1.86664V2.77093L6.44559 2.50867C7.93993 2.2098 9.48894 2.35202 10.9039 2.91798L11.2483 3.05575C12.3136 3.48191 13.4863 3.56149 14.5994 3.28319C15.6655 3.01668 16.5215 4.17208 15.9562 5.1143L14.8908 6.89004C14.5771 7.41283 14.5268 7.52067 14.5139 7.61893C14.5069 7.67273 14.5069 7.72722 14.5139 7.78102C14.5268 7.87928 14.5771 7.98713 14.8908 8.50991L16.1913 10.6775C16.6663 11.4691 16.2415 12.4945 15.3459 12.7184L15.2625 12.7392C13.6604 13.1397 11.9729 13.0252 10.4396 12.4119C9.24978 11.936 7.94729 11.8164 6.69074 12.0677L5.13428 12.3791V18.5333C5.13428 18.8785 4.85445 19.1583 4.50928 19.1583C4.1641 19.1583 3.88428 18.8785 3.88428 18.5333V1.86664C3.88428 1.52147 4.1641 1.24164 4.50928 1.24164ZM5.13428 11.1042L6.44559 10.842C7.93993 10.5431 9.48894 10.6854 10.9039 11.2513C12.1931 11.7671 13.6122 11.8633 14.9594 11.5266L15.0428 11.5057C15.124 11.4854 15.1625 11.3924 15.1194 11.3206L13.8189 9.15306C13.8024 9.12547 13.7859 9.09823 13.7697 9.07123C13.5339 8.67964 13.3256 8.33377 13.2745 7.94311C13.2534 7.78171 13.2534 7.61824 13.2745 7.45684C13.3256 7.06619 13.5339 6.72032 13.7697 6.32876C13.7859 6.30171 13.8024 6.27444 13.8189 6.24693L14.8638 4.50546C13.5073 4.83601 12.081 4.73514 10.784 4.21634L10.4396 4.07858C9.24978 3.60267 7.94729 3.48308 6.69074 3.73439L5.13428 4.04568V11.1042Z" fill="white"/>
</svg>
