<svg width="48" height="48" viewBox="0 0 48 48" fill="none" xmlns="http://www.w3.org/2000/svg">
<g clip-path="url(#clip0_415_605)">
<path d="M40.5 33.2099V25.4999C40.5 24.7043 40.1839 23.9412 39.6213 23.3786C39.0587 22.816 38.2957 22.4999 37.5 22.4999H25.5V14.7899C26.914 14.4249 28.1463 13.5566 28.9659 12.3479C29.7855 11.1393 30.1362 9.67316 29.9522 8.22444C29.7682 6.77572 29.0621 5.44384 27.9664 4.47846C26.8706 3.51308 25.4604 2.98047 24 2.98047C22.5397 2.98047 21.1294 3.51308 20.0337 4.47846C18.9379 5.44384 18.2318 6.77572 18.0478 8.22444C17.8638 9.67316 18.2145 11.1393 19.0341 12.3479C19.8537 13.5566 21.086 14.4249 22.5 14.7899V22.4999H10.5C9.70436 22.4999 8.9413 22.816 8.37869 23.3786C7.81608 23.9412 7.50001 24.7043 7.50001 25.4999V33.2099C6.08603 33.575 4.85373 34.4433 4.03411 35.652C3.21449 36.8606 2.86382 38.3267 3.04784 39.7754C3.23185 41.2242 3.93791 42.556 5.03367 43.5214C6.12942 44.4868 7.53965 45.0194 9.00001 45.0194C10.4604 45.0194 11.8706 44.4868 12.9664 43.5214C14.0621 42.556 14.7682 41.2242 14.9522 39.7754C15.1362 38.3267 14.7855 36.8606 13.9659 35.652C13.1463 34.4433 11.914 33.575 10.5 33.2099V25.4999H37.5V33.2099C36.086 33.575 34.8537 34.4433 34.0341 35.652C33.2145 36.8606 32.8638 38.3267 33.0478 39.7754C33.2318 41.2242 33.9379 42.556 35.0337 43.5214C36.1294 44.4868 37.5396 45.0194 39 45.0194C40.4604 45.0194 41.8706 44.4868 42.9664 43.5214C44.0621 42.556 44.7682 41.2242 44.9522 39.7754C45.1362 38.3267 44.7855 36.8606 43.9659 35.652C43.1463 34.4433 41.914 33.575 40.5 33.2099ZM12 38.9999C12 39.5933 11.8241 40.1733 11.4944 40.6667C11.1648 41.16 10.6962 41.5445 10.1481 41.7716C9.59989 41.9986 8.99669 42.0581 8.41474 41.9423C7.8328 41.8265 7.29825 41.5408 6.87869 41.1213C6.45914 40.7017 6.17341 40.1672 6.05766 39.5852C5.9419 39.0033 6.00131 38.4001 6.22838 37.8519C6.45544 37.3037 6.83996 36.8352 7.3333 36.5055C7.82665 36.1759 8.40667 35.9999 9.00001 35.9999C9.79566 35.9999 10.5587 36.316 11.1213 36.8786C11.6839 37.4412 12 38.2043 12 38.9999ZM21 8.99994C21 8.4066 21.176 7.82658 21.5056 7.33323C21.8352 6.83989 22.3038 6.45537 22.852 6.2283C23.4001 6.00124 24.0033 5.94183 24.5853 6.05759C25.1672 6.17334 25.7018 6.45907 26.1213 6.87862C26.5409 7.29818 26.8266 7.83273 26.9424 8.41467C27.0581 8.99662 26.9987 9.59982 26.7717 10.148C26.5446 10.6962 26.1601 11.1647 25.6667 11.4944C25.1734 11.824 24.5934 11.9999 24 11.9999C23.2044 11.9999 22.4413 11.6839 21.8787 11.1213C21.3161 10.5587 21 9.79559 21 8.99994ZM39 41.9999C38.4067 41.9999 37.8266 41.824 37.3333 41.4944C36.84 41.1647 36.4554 40.6962 36.2284 40.148C36.0013 39.5998 35.9419 38.9966 36.0577 38.4147C36.1734 37.8327 36.4591 37.2982 36.8787 36.8786C37.2982 36.4591 37.8328 36.1733 38.4147 36.0576C38.9967 35.9418 39.5999 36.0012 40.1481 36.2283C40.6962 36.4554 41.1648 36.8399 41.4944 37.3332C41.8241 37.8266 42 38.4066 42 38.9999C42 39.7956 41.6839 40.5587 41.1213 41.1213C40.5587 41.6839 39.7957 41.9999 39 41.9999Z" fill="white"/>
</g>
<defs>
<clipPath id="clip0_415_605">
<rect width="48" height="48" fill="white"/>
</clipPath>
</defs>
</svg>
