<svg width="48" height="48" viewBox="0 0 48 48" fill="none" xmlns="http://www.w3.org/2000/svg">
<path d="M40.5009 33.3747C39.2544 33.3777 38.1039 33.7902 37.1784 34.4832L37.1934 34.4727L32.2449 29.9757C33.4749 28.3302 34.2144 26.2572 34.2144 24.0102C34.2144 21.5892 33.3564 19.3692 31.9269 17.6367L31.9404 17.6532L37.4064 12.1887C38.2824 12.7752 39.3594 13.1247 40.5174 13.1247C43.6329 13.1247 46.1574 10.6002 46.1574 7.48473C46.1574 4.36923 43.6329 1.84473 40.5174 1.84473C37.4019 1.84473 34.8774 4.36923 34.8774 7.48473C34.8774 8.64423 35.2269 9.72123 35.8269 10.6167L35.8134 10.5957L30.3489 16.0602C28.6314 14.6442 26.4084 13.7847 23.9829 13.7847C22.5774 13.7847 21.2409 14.0727 20.0259 14.5947L20.0919 14.5692L18.5439 11.7582C19.7304 10.7262 20.4759 9.21573 20.4759 7.52973C20.4759 4.43973 17.9709 1.93623 14.8824 1.93623C11.7939 1.93623 9.28889 4.44123 9.28889 7.52973C9.28889 10.6197 11.7939 13.1232 14.8824 13.1232C14.8929 13.1232 14.9049 13.1232 14.9154 13.1232C15.5124 13.1142 16.0809 13.0137 16.6134 12.8322L16.5744 12.8442L18.1299 15.6687C15.4944 17.5332 13.7949 20.5662 13.7889 23.9982V23.9997C13.8039 25.0452 13.9764 26.0457 14.2839 26.9847L14.2644 26.9142L12.1299 27.8187C11.1084 26.3622 9.43739 25.4232 7.54589 25.4232C4.46189 25.4232 1.96289 27.9222 1.96289 31.0062C1.96289 34.0902 4.46189 36.5892 7.54589 36.5892C10.6299 36.5892 13.1289 34.0902 13.1289 31.0062C13.1289 30.6102 13.0884 30.2247 13.0104 29.8527L13.0164 29.8887L15.1449 28.9857C16.8954 32.1252 20.1954 34.2132 23.9829 34.2132C26.5779 34.2132 28.9449 33.2322 30.7329 31.6212L30.7239 31.6287L35.6874 36.1392C35.1849 36.9552 34.8849 37.9407 34.8789 38.9982C34.8789 42.1047 37.3974 44.6247 40.5039 44.6247C43.6104 44.6247 46.1289 42.1062 46.1289 38.9997C46.1289 35.8932 43.6104 33.3747 40.5039 33.3747H40.5009ZM11.5359 7.49973C11.5359 5.63523 13.0464 4.12473 14.9109 4.12473C16.7754 4.12473 18.2859 5.63523 18.2859 7.49973C18.2859 9.36423 16.7754 10.8747 14.9109 10.8747C13.0479 10.8717 11.5389 9.36273 11.5359 7.49973ZM7.50089 34.3797C5.63789 34.3782 4.12889 32.8692 4.12889 31.0062C4.12889 29.1432 5.63939 27.6327 7.50239 27.6327C9.36539 27.6327 10.8744 29.1417 10.8759 31.0047C10.8729 32.8677 9.36389 34.3767 7.50089 34.3797ZM40.5009 4.12473C42.3654 4.12473 43.8759 5.63523 43.8759 7.49973C43.8759 9.36423 42.3654 10.8747 40.5009 10.8747C38.6364 10.8747 37.1259 9.36423 37.1259 7.49973C37.1289 5.63673 38.6379 4.12773 40.5009 4.12473ZM16.0359 23.9997C16.0359 23.9997 16.0359 23.9997 16.0359 23.9982C16.0359 19.6002 19.6014 16.0347 23.9994 16.0347C28.3974 16.0347 31.9629 19.6002 31.9629 23.9982C31.9629 28.3962 28.3974 31.9617 23.9994 31.9617C19.6029 31.9572 16.0419 28.3947 16.0359 23.9997ZM40.5009 42.3747C38.6364 42.3747 37.1259 40.8642 37.1259 38.9997C37.1259 37.1352 38.6364 35.6247 40.5009 35.6247C42.3654 35.6247 43.8759 37.1352 43.8759 38.9997C43.8729 40.8627 42.3639 42.3717 40.5009 42.3747Z" fill="white"/>
</svg>
