<svg width="58" height="58" viewBox="0 0 58 58" fill="none" xmlns="http://www.w3.org/2000/svg">
<g filter="url(#filter0_d_415_582)">
<path d="M29 49C42.2548 49 53 38.2548 53 25C53 11.7452 42.2548 1 29 1C15.7452 1 5 11.7452 5 25C5 38.2548 15.7452 49 29 49Z" stroke="white" stroke-width="2" stroke-miterlimit="10"/>
<path d="M40.3609 46.3501V34.2662H43.5933V31.8803H40.3609C40.284 31.5724 40.284 31.3415 40.284 31.0336C40.284 30.0331 40.5918 29.1864 41.1305 28.5707C41.6693 27.9549 42.4389 27.5701 43.2854 27.5701C43.7472 27.5701 44.2859 27.6471 44.9016 27.878L45.6712 25.7999C44.7477 25.492 43.8242 25.3381 43.0546 25.3381C41.4384 25.3381 40.0531 25.9538 39.0526 27.1083C38.0521 28.2628 37.5133 29.8791 37.5133 31.8803H35.2045H35.2815C33.9731 31.8803 33.6653 30.6488 33.6653 29.2634V23.5678C33.6653 21.2588 33.1266 19.6425 32.1261 18.565C31.0486 17.4874 29.4324 17.0256 27.1236 17.0256C26.277 17.0256 24.4299 17.1796 23.0446 18.0262L22.8137 18.1801C22.7368 18.0262 22.5829 17.8723 22.5059 17.7953C21.9672 17.1026 21.0436 16.4099 19.8123 15.8711L17.8113 14.7166C16.6568 14.1779 16.0412 13.4082 16.0412 12.4076C16.0412 11.9458 16.272 11.484 16.7338 11.1761C17.1956 10.8683 17.7343 10.7143 18.427 10.7143C19.5814 10.7143 20.6588 11.1761 21.8132 12.0228L22.5829 9.40591C20.8128 8.63624 19.3505 8.32837 18.1961 8.32837C16.6568 8.32837 15.4255 8.7132 14.425 9.40591C13.5014 10.1756 12.9627 11.1761 12.9627 12.4846C12.9627 13.0234 13.0397 13.4852 13.1936 13.87C13.3475 14.3318 13.5784 14.7166 13.9632 15.1015C14.271 15.4863 14.6559 15.8711 15.1176 16.179C15.5794 16.4869 16.426 16.9487 17.7343 17.5644C19.4274 18.3341 20.274 19.2577 20.274 20.2583C20.274 21.7206 19.4274 22.4903 17.6573 22.4903C16.6568 22.4903 15.4255 21.9515 13.8862 20.951L12.8857 23.6448C14.348 24.4914 15.9642 24.8763 17.5804 24.8763C19.3505 24.8763 20.7358 24.4914 21.7363 23.6448C22.5829 22.9521 23.1216 22.0285 23.1986 20.797C23.1986 20.6431 23.1986 20.4892 23.1986 20.3352C23.1986 19.6425 25.5844 19.4116 27.3545 19.4116C29.6633 19.4116 30.8177 20.7201 30.8177 23.26C30.0481 23.0291 29.3555 22.8751 28.8167 22.8751C26.6618 22.8751 24.8147 23.4139 23.4294 24.5684C22.0441 25.7229 21.2745 27.0313 21.2745 28.6477C21.2745 30.0331 21.7363 31.1106 22.6598 32.0342C23.5834 32.9578 24.6608 33.4196 25.8922 33.4196C28.201 33.4196 29.9711 32.7269 31.0486 31.2645C31.2795 32.0342 32.9726 34.1893 35.1275 34.1893H35.0506H37.3594V47.7355" fill="white"/>
<path d="M31.3682 24.6141C30.2103 24.3246 29.4384 24.2281 29.0524 24.2281C27.2191 24.2281 25.7718 24.7106 24.7104 25.5791C23.5526 26.544 22.9736 27.6055 22.9736 28.86C22.9736 30.9829 24.228 31.9478 26.6402 31.9478C28.4735 31.9478 30.0173 31.0794 31.3682 29.4389V24.6141Z" fill="#121423"/>
</g>
<defs>
<filter id="filter0_d_415_582" x="0" y="0" width="58" height="58" filterUnits="userSpaceOnUse" color-interpolation-filters="sRGB">
<feFlood flood-opacity="0" result="BackgroundImageFix"/>
<feColorMatrix in="SourceAlpha" type="matrix" values="0 0 0 0 0 0 0 0 0 0 0 0 0 0 0 0 0 0 127 0" result="hardAlpha"/>
<feOffset dy="4"/>
<feGaussianBlur stdDeviation="2"/>
<feComposite in2="hardAlpha" operator="out"/>
<feColorMatrix type="matrix" values="0 0 0 0 0.0331901 0 0 0 0 0.0262277 0 0 0 0 0.0692306 0 0 0 0.25 0"/>
<feBlend mode="normal" in2="BackgroundImageFix" result="effect1_dropShadow_415_582"/>
<feBlend mode="normal" in="SourceGraphic" in2="effect1_dropShadow_415_582" result="shape"/>
</filter>
</defs>
</svg>
